<svg xmlns="http://www.w3.org/2000/svg" xmlns:xlink="http://www.w3.org/1999/xlink" width="160" zoomAndPan="magnify" viewBox="0 0 120 41.04" height="45" preserveAspectRatio="xMidYMid meet" version="1.0"><defs><g/><clipPath id="f5e9e39099"><path d="M 1 1 L 16 1 L 16 29.894531 L 1 29.894531 Z M 1 1 " clip-rule="nonzero"/></clipPath><clipPath id="55aca2b562"><path d="M 65 0.34375 L 80 0.34375 L 80 27 L 65 27 Z M 65 0.34375 " clip-rule="nonzero"/></clipPath><clipPath id="4ffe261b33"><path d="M 101 10 L 109.753906 10 L 109.753906 22 L 101 22 Z M 101 10 " clip-rule="nonzero"/></clipPath><clipPath id="45c1f24a9c"><path d="M 51.484375 11.058594 L 61.597656 11.058594 L 61.597656 20.5625 L 51.484375 20.5625 Z M 51.484375 11.058594 " clip-rule="nonzero"/></clipPath><clipPath id="496e24be9b"><rect x="0" width="110" y="0" height="30"/></clipPath></defs><g transform="matrix(1, 0, 0, 1, 7, 2)"><g clip-path="url(#496e24be9b)"><g clip-path="url(#f5e9e39099)"><g fill="#ffffff" fill-opacity="1"><g transform="translate(0.451337, 18.286306)"><g><path d="M 15.15625 -8.234375 C 15.164062 -8.148438 15.140625 -8.066406 15.078125 -7.984375 C 15.023438 -7.910156 14.953125 -7.867188 14.859375 -7.859375 C 14.128906 -7.773438 13.441406 -7.664062 12.796875 -7.53125 C 12.160156 -7.40625 11.550781 -7.253906 10.96875 -7.078125 C 10.707031 -5.890625 10.441406 -4.691406 10.171875 -3.484375 C 9.898438 -2.273438 9.640625 -1.109375 9.390625 0.015625 C 9.140625 1.140625 8.910156 2.179688 8.703125 3.140625 C 8.492188 4.097656 8.3125 4.921875 8.15625 5.609375 C 8.007812 6.296875 7.910156 6.800781 7.859375 7.125 C 7.609375 8.25 7.25 9.148438 6.78125 9.828125 C 6.320312 10.515625 5.773438 10.9375 5.140625 11.09375 C 4.972656 11.144531 4.800781 11.171875 4.625 11.171875 C 3.800781 11.171875 3.035156 10.75 2.328125 9.90625 C 1.953125 9.457031 1.640625 8.875 1.390625 8.15625 C 1.148438 7.4375 0.992188 6.628906 0.921875 5.734375 C 0.847656 4.847656 0.878906 3.910156 1.015625 2.921875 C 1.160156 1.941406 1.425781 0.960938 1.8125 -0.015625 C 2.707031 -2.203125 4.128906 -4.007812 6.078125 -5.4375 C 7.316406 -6.332031 8.757812 -7.054688 10.40625 -7.609375 C 10.625 -8.617188 10.84375 -9.59375 11.0625 -10.53125 C 11.289062 -11.46875 11.5 -12.328125 11.6875 -13.109375 C 11.882812 -13.960938 12 -14.625 12.03125 -15.09375 C 12.0625 -15.570312 12.046875 -15.910156 11.984375 -16.109375 C 11.929688 -16.304688 11.875 -16.410156 11.8125 -16.421875 C 11.664062 -16.472656 11.457031 -16.382812 11.1875 -16.15625 C 10.925781 -15.9375 10.648438 -15.628906 10.359375 -15.234375 C 10.078125 -14.835938 9.84375 -14.382812 9.65625 -13.875 C 9.5625 -13.625 9.484375 -13.328125 9.421875 -12.984375 C 9.359375 -12.640625 9.375 -12.304688 9.46875 -11.984375 C 9.570312 -11.660156 9.8125 -11.414062 10.1875 -11.25 C 10.269531 -11.21875 10.328125 -11.15625 10.359375 -11.0625 C 10.398438 -10.976562 10.398438 -10.894531 10.359375 -10.8125 C 10.328125 -10.726562 10.265625 -10.664062 10.171875 -10.625 C 10.085938 -10.59375 10 -10.597656 9.90625 -10.640625 C 9.320312 -10.898438 8.945312 -11.335938 8.78125 -11.953125 C 8.625 -12.566406 8.703125 -13.289062 9.015625 -14.125 C 9.140625 -14.476562 9.316406 -14.84375 9.546875 -15.21875 C 9.785156 -15.601562 10.039062 -15.945312 10.3125 -16.25 C 10.59375 -16.5625 10.878906 -16.796875 11.171875 -16.953125 C 11.460938 -17.117188 11.738281 -17.160156 12 -17.078125 C 12.832031 -16.828125 12.945312 -15.453125 12.34375 -12.953125 C 12.164062 -12.210938 11.972656 -11.410156 11.765625 -10.546875 C 11.566406 -9.679688 11.363281 -8.78125 11.15625 -7.84375 C 12.28125 -8.15625 13.488281 -8.382812 14.78125 -8.53125 C 14.863281 -8.539062 14.941406 -8.515625 15.015625 -8.453125 C 15.097656 -8.398438 15.144531 -8.328125 15.15625 -8.234375 Z M 7.171875 6.984375 C 7.242188 6.671875 7.351562 6.179688 7.5 5.515625 C 7.644531 4.859375 7.816406 4.066406 8.015625 3.140625 C 8.210938 2.210938 8.429688 1.195312 8.671875 0.09375 C 8.910156 -1 9.160156 -2.132812 9.421875 -3.3125 C 9.691406 -4.488281 9.957031 -5.660156 10.21875 -6.828125 C 8.675781 -6.273438 7.390625 -5.601562 6.359375 -4.8125 C 5.335938 -4.03125 4.515625 -3.195312 3.890625 -2.3125 C 3.265625 -1.4375 2.785156 -0.582031 2.453125 0.25 C 2.171875 0.945312 1.953125 1.71875 1.796875 2.5625 C 1.640625 3.414062 1.566406 4.273438 1.578125 5.140625 C 1.597656 6.003906 1.707031 6.8125 1.90625 7.5625 C 2.101562 8.3125 2.414062 8.941406 2.84375 9.453125 C 3.175781 9.859375 3.53125 10.144531 3.90625 10.3125 C 4.28125 10.476562 4.640625 10.519531 4.984375 10.4375 C 5.484375 10.320312 5.921875 9.96875 6.296875 9.375 C 6.671875 8.78125 6.960938 7.984375 7.171875 6.984375 Z M 7.171875 6.984375 "/></g></g></g></g><g fill="#ffffff" fill-opacity="1"><g transform="translate(14.344832, 18.286306)"><g><path d="M 6.453125 -3.890625 C 6.535156 -3.828125 6.582031 -3.75 6.59375 -3.65625 C 6.601562 -3.5625 6.578125 -3.476562 6.515625 -3.40625 C 6.210938 -3.007812 5.851562 -2.65625 5.4375 -2.34375 C 5.03125 -2.039062 4.601562 -1.8125 4.15625 -1.65625 C 3.707031 -1.507812 3.28125 -1.484375 2.875 -1.578125 C 2.707031 -1.171875 2.46875 -0.851562 2.15625 -0.625 C 1.851562 -0.394531 1.550781 -0.28125 1.25 -0.28125 C 1.25 -0.28125 1.242188 -0.28125 1.234375 -0.28125 C 0.910156 -0.289062 0.625 -0.398438 0.375 -0.609375 C 0.132812 -0.816406 -0.03125 -1.109375 -0.125 -1.484375 C -0.226562 -1.898438 -0.242188 -2.289062 -0.171875 -2.65625 C -0.109375 -3.03125 0.015625 -3.359375 0.203125 -3.640625 C 0.398438 -3.929688 0.617188 -4.15625 0.859375 -4.3125 C 0.941406 -4.375 1.035156 -4.382812 1.140625 -4.34375 C 1.242188 -4.601562 1.394531 -4.804688 1.59375 -4.953125 C 1.789062 -5.097656 1.992188 -5.148438 2.203125 -5.109375 C 2.335938 -5.085938 2.484375 -5.007812 2.640625 -4.875 C 2.796875 -4.738281 2.921875 -4.492188 3.015625 -4.140625 C 3.109375 -3.785156 3.132812 -3.269531 3.09375 -2.59375 C 3.082031 -2.476562 3.066406 -2.363281 3.046875 -2.25 C 3.367188 -2.1875 3.707031 -2.21875 4.0625 -2.34375 C 4.414062 -2.476562 4.757812 -2.675781 5.09375 -2.9375 C 5.425781 -3.207031 5.71875 -3.503906 5.96875 -3.828125 C 6.03125 -3.898438 6.109375 -3.941406 6.203125 -3.953125 C 6.296875 -3.960938 6.378906 -3.941406 6.453125 -3.890625 Z M 1.25 -0.984375 C 1.40625 -0.984375 1.578125 -1.050781 1.765625 -1.1875 C 1.953125 -1.332031 2.101562 -1.546875 2.21875 -1.828125 C 1.789062 -2.066406 1.484375 -2.335938 1.296875 -2.640625 C 1.117188 -2.953125 1.023438 -3.265625 1.015625 -3.578125 C 0.765625 -3.335938 0.597656 -3.035156 0.515625 -2.671875 C 0.441406 -2.304688 0.445312 -1.972656 0.53125 -1.671875 C 0.570312 -1.546875 0.644531 -1.398438 0.75 -1.234375 C 0.851562 -1.066406 1.019531 -0.984375 1.25 -0.984375 Z M 2.40625 -2.640625 C 2.425781 -3.109375 2.414062 -3.472656 2.375 -3.734375 C 2.332031 -3.992188 2.28125 -4.171875 2.21875 -4.265625 C 2.164062 -4.367188 2.128906 -4.425781 2.109375 -4.4375 C 2.085938 -4.4375 2.078125 -4.4375 2.078125 -4.4375 C 2.046875 -4.4375 1.992188 -4.398438 1.921875 -4.328125 C 1.847656 -4.253906 1.789062 -4.144531 1.75 -4 C 1.675781 -3.78125 1.679688 -3.535156 1.765625 -3.265625 C 1.847656 -3.003906 2.0625 -2.757812 2.40625 -2.53125 C 2.40625 -2.5625 2.40625 -2.597656 2.40625 -2.640625 Z M 2.40625 -2.640625 "/></g></g></g><g fill="#ffffff" fill-opacity="1"><g transform="translate(20.044726, 18.286306)"><g><path d="M 7.921875 -4.078125 C 7.992188 -4.015625 8.035156 -3.9375 8.046875 -3.84375 C 8.054688 -3.75 8.03125 -3.664062 7.96875 -3.59375 C 7.625 -3.195312 7.242188 -2.753906 6.828125 -2.265625 C 6.410156 -1.773438 6 -1.296875 5.59375 -0.828125 C 5.195312 -0.367188 4.859375 0.0234375 4.578125 0.359375 C 4.296875 0.703125 4.101562 0.929688 4 1.046875 C 3.800781 1.304688 3.609375 1.5625 3.421875 1.8125 C 3.578125 2.5 3.59375 3.148438 3.46875 3.765625 C 3.34375 4.378906 3.132812 4.921875 2.84375 5.390625 C 2.550781 5.867188 2.242188 6.238281 1.921875 6.5 C 1.585938 6.78125 1.28125 6.921875 1 6.921875 C 0.820312 6.921875 0.671875 6.863281 0.546875 6.75 C 0.347656 6.5625 0.28125 6.28125 0.34375 5.90625 C 0.40625 5.53125 0.554688 5.101562 0.796875 4.625 C 1.035156 4.15625 1.320312 3.664062 1.65625 3.15625 C 1.988281 2.644531 2.328125 2.148438 2.671875 1.671875 C 2.609375 1.460938 2.523438 1.242188 2.421875 1.015625 C 2.316406 0.796875 2.191406 0.578125 2.046875 0.359375 C 1.554688 -0.378906 1.140625 -1.070312 0.796875 -1.71875 C 0.460938 -2.363281 0.3125 -2.953125 0.34375 -3.484375 C 0.394531 -4.472656 0.832031 -5.210938 1.65625 -5.703125 C 1.988281 -5.898438 2.335938 -6.015625 2.703125 -6.046875 C 3.078125 -6.085938 3.414062 -6.035156 3.71875 -5.890625 C 3.800781 -5.847656 3.859375 -5.78125 3.890625 -5.6875 C 3.921875 -5.601562 3.921875 -5.519531 3.890625 -5.4375 C 3.835938 -5.351562 3.765625 -5.296875 3.671875 -5.265625 C 3.585938 -5.234375 3.503906 -5.234375 3.421875 -5.265625 C 2.992188 -5.472656 2.523438 -5.421875 2.015625 -5.109375 C 1.398438 -4.742188 1.070312 -4.191406 1.03125 -3.453125 C 1.007812 -3.015625 1.15625 -2.5 1.46875 -1.90625 C 1.789062 -1.3125 2.175781 -0.6875 2.625 -0.03125 C 2.84375 0.3125 3.023438 0.660156 3.171875 1.015625 C 3.265625 0.898438 3.363281 0.769531 3.46875 0.625 C 3.5625 0.5 3.753906 0.265625 4.046875 -0.078125 C 4.335938 -0.421875 4.679688 -0.820312 5.078125 -1.28125 C 5.472656 -1.75 5.878906 -2.222656 6.296875 -2.703125 C 6.710938 -3.191406 7.097656 -3.640625 7.453125 -4.046875 C 7.503906 -4.117188 7.578125 -4.160156 7.671875 -4.171875 C 7.765625 -4.179688 7.847656 -4.148438 7.921875 -4.078125 Z M 2.140625 5.234375 C 2.222656 5.109375 2.320312 4.921875 2.4375 4.671875 C 2.5625 4.429688 2.664062 4.132812 2.75 3.78125 C 2.84375 3.4375 2.867188 3.050781 2.828125 2.625 C 2.285156 3.394531 1.878906 4.035156 1.609375 4.546875 C 1.347656 5.054688 1.175781 5.441406 1.09375 5.703125 C 1.019531 5.972656 0.992188 6.148438 1.015625 6.234375 C 1.097656 6.234375 1.242188 6.15625 1.453125 6 C 1.671875 5.84375 1.898438 5.585938 2.140625 5.234375 Z M 2.140625 5.234375 "/></g></g></g><g fill="#ffffff" fill-opacity="1"><g transform="translate(27.223032, 18.286306)"><g><path d="M 8.4375 -4.078125 C 8.507812 -4.023438 8.554688 -3.953125 8.578125 -3.859375 C 8.609375 -3.765625 8.597656 -3.675781 8.546875 -3.59375 C 7.972656 -2.675781 7.46875 -1.929688 7.03125 -1.359375 C 6.59375 -0.796875 6.21875 -0.363281 5.90625 -0.0625 C 5.59375 0.226562 5.328125 0.425781 5.109375 0.53125 C 4.898438 0.632812 4.726562 0.6875 4.59375 0.6875 C 4.46875 0.6875 4.367188 0.679688 4.296875 0.671875 C 4.023438 0.597656 3.820312 0.429688 3.6875 0.171875 C 3.550781 -0.078125 3.460938 -0.335938 3.421875 -0.609375 C 3.378906 -0.878906 3.351562 -1.085938 3.34375 -1.234375 C 3.320312 -1.648438 3.273438 -1.925781 3.203125 -2.0625 C 3.128906 -2.207031 3.078125 -2.28125 3.046875 -2.28125 C 3.035156 -2.28125 3.03125 -2.28125 3.03125 -2.28125 C 2.875 -2.28125 2.617188 -2.0625 2.265625 -1.625 C 1.910156 -1.195312 1.488281 -0.519531 1 0.40625 C 0.519531 1.332031 0.0195312 2.539062 -0.5 4.03125 C -0.539062 4.175781 -0.644531 4.25 -0.8125 4.25 C -0.84375 4.25 -0.867188 4.25 -0.890625 4.25 C -1.078125 4.207031 -1.164062 4.09375 -1.15625 3.90625 C -1.144531 3.695312 -1.09375 3.332031 -1 2.8125 C -0.90625 2.289062 -0.773438 1.664062 -0.609375 0.9375 C -0.453125 0.207031 -0.273438 -0.582031 -0.078125 -1.4375 C 0.117188 -2.289062 0.320312 -3.15625 0.53125 -4.03125 C 0.738281 -4.914062 0.9375 -5.757812 1.125 -6.5625 C 1.3125 -7.363281 1.484375 -8.082031 1.640625 -8.71875 C 1.796875 -9.363281 1.921875 -9.878906 2.015625 -10.265625 C 2.109375 -10.648438 2.15625 -10.847656 2.15625 -10.859375 C 2.425781 -11.953125 2.726562 -12.945312 3.0625 -13.84375 C 3.394531 -14.738281 3.722656 -15.457031 4.046875 -16 C 4.378906 -16.550781 4.671875 -16.851562 4.921875 -16.90625 C 5.117188 -16.9375 5.269531 -16.875 5.375 -16.71875 C 5.539062 -16.488281 5.523438 -15.992188 5.328125 -15.234375 C 5.140625 -14.484375 4.785156 -13.53125 4.265625 -12.375 C 3.742188 -11.226562 3.085938 -9.941406 2.296875 -8.515625 C 2.085938 -7.617188 1.851562 -6.640625 1.59375 -5.578125 C 1.34375 -4.523438 1.09375 -3.460938 0.84375 -2.390625 C 0.601562 -1.328125 0.378906 -0.347656 0.171875 0.546875 C 0.492188 -0.128906 0.820312 -0.738281 1.15625 -1.28125 C 1.5 -1.832031 1.835938 -2.257812 2.171875 -2.5625 C 2.515625 -2.863281 2.835938 -2.992188 3.140625 -2.953125 C 3.398438 -2.921875 3.59375 -2.789062 3.71875 -2.5625 C 3.84375 -2.332031 3.925781 -2.085938 3.96875 -1.828125 C 4.007812 -1.578125 4.03125 -1.394531 4.03125 -1.28125 C 4.0625 -0.84375 4.117188 -0.519531 4.203125 -0.3125 C 4.285156 -0.113281 4.367188 -0.0078125 4.453125 0 C 4.472656 0.0078125 4.550781 -0.00390625 4.6875 -0.046875 C 4.820312 -0.0859375 5.023438 -0.21875 5.296875 -0.4375 C 5.566406 -0.664062 5.921875 -1.054688 6.359375 -1.609375 C 6.796875 -2.160156 7.332031 -2.945312 7.96875 -3.96875 C 8.007812 -4.039062 8.078125 -4.085938 8.171875 -4.109375 C 8.265625 -4.140625 8.351562 -4.128906 8.4375 -4.078125 Z M 4.796875 -15.90625 C 4.585938 -15.613281 4.3125 -15.085938 3.96875 -14.328125 C 3.632812 -13.578125 3.296875 -12.550781 2.953125 -11.25 C 3.554688 -12.457031 4 -13.445312 4.28125 -14.21875 C 4.5625 -14.988281 4.734375 -15.550781 4.796875 -15.90625 Z M 4.796875 -15.90625 "/></g></g></g><g fill="#ffffff" fill-opacity="1"><g transform="translate(34.90008, 18.286306)"><g><path d="M 7.109375 -3.84375 C 7.179688 -3.800781 7.226562 -3.726562 7.25 -3.625 C 7.269531 -3.53125 7.257812 -3.453125 7.21875 -3.390625 C 7.125 -3.234375 6.972656 -2.992188 6.765625 -2.671875 C 6.554688 -2.347656 6.304688 -1.992188 6.015625 -1.609375 C 5.722656 -1.222656 5.410156 -0.847656 5.078125 -0.484375 C 4.753906 -0.128906 4.429688 0.164062 4.109375 0.40625 C 3.796875 0.644531 3.5 0.765625 3.21875 0.765625 C 3.125 0.765625 3.039062 0.75 2.96875 0.71875 C 2.675781 0.601562 2.488281 0.328125 2.40625 -0.109375 C 2.332031 -0.546875 2.363281 -1.179688 2.5 -2.015625 C 2.34375 -1.804688 2.175781 -1.59375 2 -1.375 C 1.820312 -1.164062 1.628906 -0.972656 1.421875 -0.796875 C 1.117188 -0.535156 0.859375 -0.425781 0.640625 -0.46875 C 0.429688 -0.519531 0.289062 -0.582031 0.21875 -0.65625 C 0 -0.832031 -0.132812 -1.101562 -0.1875 -1.46875 C -0.238281 -1.832031 -0.21875 -2.234375 -0.125 -2.671875 C -0.0390625 -3.117188 0.117188 -3.550781 0.359375 -3.96875 C 0.398438 -4.050781 0.46875 -4.101562 0.5625 -4.125 C 0.664062 -4.15625 0.757812 -4.144531 0.84375 -4.09375 C 0.925781 -4.050781 0.976562 -3.984375 1 -3.890625 C 1.019531 -3.804688 1.007812 -3.722656 0.96875 -3.640625 C 0.75 -3.273438 0.601562 -2.914062 0.53125 -2.5625 C 0.457031 -2.21875 0.4375 -1.921875 0.46875 -1.671875 C 0.5 -1.421875 0.554688 -1.257812 0.640625 -1.1875 C 0.691406 -1.15625 0.753906 -1.164062 0.828125 -1.21875 C 0.898438 -1.269531 0.953125 -1.300781 0.984375 -1.3125 C 1.203125 -1.519531 1.410156 -1.753906 1.609375 -2.015625 C 1.816406 -2.273438 1.992188 -2.507812 2.140625 -2.71875 C 2.328125 -2.976562 2.484375 -3.171875 2.609375 -3.296875 C 2.734375 -3.421875 2.878906 -3.453125 3.046875 -3.390625 C 3.210938 -3.328125 3.296875 -3.191406 3.296875 -2.984375 C 3.296875 -2.785156 3.265625 -2.515625 3.203125 -2.171875 C 3.085938 -1.484375 3.035156 -0.984375 3.046875 -0.671875 C 3.054688 -0.359375 3.082031 -0.15625 3.125 -0.0625 C 3.175781 0.03125 3.207031 0.078125 3.21875 0.078125 C 3.363281 0.128906 3.753906 -0.148438 4.390625 -0.765625 C 5.035156 -1.390625 5.78125 -2.378906 6.625 -3.734375 C 6.675781 -3.816406 6.75 -3.867188 6.84375 -3.890625 C 6.9375 -3.910156 7.023438 -3.894531 7.109375 -3.84375 Z M 7.109375 -3.84375 "/></g></g></g><g fill="#ffffff" fill-opacity="1"><g transform="translate(41.276835, 18.286306)"><g><path d="M 7.46875 -3.953125 C 7.550781 -3.921875 7.601562 -3.859375 7.625 -3.765625 C 7.65625 -3.679688 7.65625 -3.597656 7.625 -3.515625 C 7.394531 -3.046875 7.144531 -2.578125 6.875 -2.109375 C 6.613281 -1.648438 6.335938 -1.226562 6.046875 -0.84375 C 5.753906 -0.457031 5.453125 -0.148438 5.140625 0.078125 C 4.835938 0.304688 4.53125 0.421875 4.21875 0.421875 C 4.15625 0.421875 4.09375 0.414062 4.03125 0.40625 C 3.226562 0.25 2.734375 -0.816406 2.546875 -2.796875 C 2.347656 -2.523438 2.113281 -2.21875 1.84375 -1.875 C 1.570312 -1.539062 1.289062 -1.207031 1 -0.875 C 0.945312 -0.820312 0.867188 -0.742188 0.765625 -0.640625 C 0.660156 -0.546875 0.535156 -0.46875 0.390625 -0.40625 C 0.242188 -0.351562 0.101562 -0.359375 -0.03125 -0.421875 C -0.320312 -0.535156 -0.457031 -0.847656 -0.4375 -1.359375 C -0.4375 -1.648438 -0.378906 -2.015625 -0.265625 -2.453125 C -0.160156 -2.890625 -0.00390625 -3.332031 0.203125 -3.78125 C 0.410156 -4.226562 0.65625 -4.625 0.9375 -4.96875 C 1.21875 -5.3125 1.53125 -5.546875 1.875 -5.671875 C 2.082031 -5.742188 2.335938 -5.753906 2.640625 -5.703125 C 2.953125 -5.648438 3.273438 -5.429688 3.609375 -5.046875 C 3.671875 -4.972656 3.695312 -4.890625 3.6875 -4.796875 C 3.6875 -4.703125 3.648438 -4.625 3.578125 -4.5625 C 3.503906 -4.5 3.421875 -4.46875 3.328125 -4.46875 C 3.234375 -4.476562 3.15625 -4.519531 3.09375 -4.59375 C 2.8125 -4.925781 2.566406 -5.082031 2.359375 -5.0625 C 2.148438 -5.050781 1.972656 -4.988281 1.828125 -4.875 C 1.566406 -4.6875 1.328125 -4.414062 1.109375 -4.0625 C 0.898438 -3.707031 0.722656 -3.332031 0.578125 -2.9375 C 0.441406 -2.539062 0.34375 -2.171875 0.28125 -1.828125 C 0.226562 -1.492188 0.210938 -1.253906 0.234375 -1.109375 C 0.265625 -1.128906 0.300781 -1.15625 0.34375 -1.1875 C 0.382812 -1.226562 0.429688 -1.273438 0.484375 -1.328125 C 0.835938 -1.722656 1.160156 -2.113281 1.453125 -2.5 C 1.753906 -2.882812 2.007812 -3.226562 2.21875 -3.53125 C 2.28125 -3.613281 2.335938 -3.691406 2.390625 -3.765625 C 2.441406 -3.847656 2.492188 -3.914062 2.546875 -3.96875 C 2.640625 -4.09375 2.765625 -4.128906 2.921875 -4.078125 C 3.078125 -4.046875 3.160156 -3.945312 3.171875 -3.78125 C 3.203125 -3.007812 3.257812 -2.390625 3.34375 -1.921875 C 3.4375 -1.453125 3.535156 -1.097656 3.640625 -0.859375 C 3.753906 -0.628906 3.859375 -0.472656 3.953125 -0.390625 C 4.046875 -0.304688 4.117188 -0.265625 4.171875 -0.265625 C 4.390625 -0.222656 4.75 -0.457031 5.25 -0.96875 C 5.75 -1.476562 6.332031 -2.421875 7 -3.796875 C 7.050781 -3.890625 7.117188 -3.953125 7.203125 -3.984375 C 7.296875 -4.015625 7.382812 -4.003906 7.46875 -3.953125 Z M 7.46875 -3.953125 "/></g></g></g><g fill="#ffffff" fill-opacity="1"><g transform="translate(47.90311, 18.286306)"><g/></g></g><g fill="#ffffff" fill-opacity="1"><g transform="translate(53.371445, 18.286306)"><g/></g></g><g fill="#ffffff" fill-opacity="1"><g transform="translate(58.83978, 18.286306)"><g/></g></g><g clip-path="url(#55aca2b562)"><g fill="#ffffff" fill-opacity="1"><g transform="translate(64.308269, 18.286306)"><g><path d="M 14.484375 -4.15625 C 14.566406 -4.113281 14.617188 -4.046875 14.640625 -3.953125 C 14.671875 -3.867188 14.671875 -3.785156 14.640625 -3.703125 C 13.453125 -1.148438 12.269531 1.007812 11.09375 2.78125 C 9.914062 4.550781 8.785156 5.894531 7.703125 6.8125 C 6.628906 7.726562 5.625 8.1875 4.6875 8.1875 C 4.414062 8.1875 4.148438 8.144531 3.890625 8.0625 C 3.242188 7.875 2.695312 7.453125 2.25 6.796875 C 1.800781 6.148438 1.460938 5.316406 1.234375 4.296875 C 1.003906 3.273438 0.890625 2.109375 0.890625 0.796875 C 0.890625 -0.515625 1.015625 -1.9375 1.265625 -3.46875 C 1.429688 -4.5 1.664062 -5.597656 1.96875 -6.765625 C 2.28125 -7.941406 2.632812 -9.078125 3.03125 -10.171875 C 3.25 -10.785156 3.515625 -11.457031 3.828125 -12.1875 C 4.148438 -12.914062 4.503906 -13.632812 4.890625 -14.34375 C 5.285156 -15.0625 5.722656 -15.707031 6.203125 -16.28125 C 6.578125 -16.738281 6.914062 -17.0625 7.21875 -17.25 C 7.519531 -17.4375 7.785156 -17.535156 8.015625 -17.546875 C 8.242188 -17.554688 8.429688 -17.523438 8.578125 -17.453125 C 8.972656 -17.265625 9.25 -16.875 9.40625 -16.28125 C 9.570312 -15.6875 9.65625 -14.945312 9.65625 -14.0625 C 9.65625 -13.1875 9.59375 -12.21875 9.46875 -11.15625 C 9.34375 -10.101562 9.175781 -9.015625 8.96875 -7.890625 C 8.757812 -6.773438 8.535156 -5.679688 8.296875 -4.609375 C 8.273438 -4.523438 8.222656 -4.457031 8.140625 -4.40625 C 8.054688 -4.351562 7.972656 -4.335938 7.890625 -4.359375 C 7.796875 -4.390625 7.722656 -4.441406 7.671875 -4.515625 C 7.617188 -4.585938 7.601562 -4.675781 7.625 -4.78125 C 8.082031 -6.832031 8.414062 -8.597656 8.625 -10.078125 C 8.832031 -11.554688 8.941406 -12.773438 8.953125 -13.734375 C 8.972656 -14.691406 8.921875 -15.421875 8.796875 -15.921875 C 8.671875 -16.421875 8.5 -16.722656 8.28125 -16.828125 C 8.113281 -16.910156 7.894531 -16.863281 7.625 -16.6875 C 7.351562 -16.507812 7.054688 -16.234375 6.734375 -15.859375 C 6.285156 -15.304688 5.851562 -14.65625 5.4375 -13.90625 C 5.019531 -13.164062 4.628906 -12.351562 4.265625 -11.46875 C 3.898438 -10.582031 3.566406 -9.671875 3.265625 -8.734375 C 2.960938 -7.796875 2.695312 -6.867188 2.46875 -5.953125 C 2.25 -5.035156 2.070312 -4.171875 1.9375 -3.359375 C 1.695312 -1.929688 1.570312 -0.585938 1.5625 0.671875 C 1.5625 1.929688 1.671875 3.0625 1.890625 4.0625 C 2.085938 4.988281 2.375 5.738281 2.75 6.3125 C 3.132812 6.882812 3.582031 7.25 4.09375 7.40625 C 5.21875 7.757812 6.578125 7.109375 8.171875 5.453125 C 10.046875 3.492188 11.992188 0.347656 14.015625 -3.984375 C 14.054688 -4.066406 14.117188 -4.125 14.203125 -4.15625 C 14.296875 -4.195312 14.390625 -4.195312 14.484375 -4.15625 Z M 14.484375 -4.15625 "/></g></g></g></g><g fill="#ffffff" fill-opacity="1"><g transform="translate(78.059264, 18.286306)"><g><path d="M 6.453125 -3.890625 C 6.535156 -3.828125 6.582031 -3.75 6.59375 -3.65625 C 6.601562 -3.5625 6.578125 -3.476562 6.515625 -3.40625 C 6.210938 -3.007812 5.851562 -2.65625 5.4375 -2.34375 C 5.03125 -2.039062 4.601562 -1.8125 4.15625 -1.65625 C 3.707031 -1.507812 3.28125 -1.484375 2.875 -1.578125 C 2.707031 -1.171875 2.46875 -0.851562 2.15625 -0.625 C 1.851562 -0.394531 1.550781 -0.28125 1.25 -0.28125 C 1.25 -0.28125 1.242188 -0.28125 1.234375 -0.28125 C 0.910156 -0.289062 0.625 -0.398438 0.375 -0.609375 C 0.132812 -0.816406 -0.03125 -1.109375 -0.125 -1.484375 C -0.226562 -1.898438 -0.242188 -2.289062 -0.171875 -2.65625 C -0.109375 -3.03125 0.015625 -3.359375 0.203125 -3.640625 C 0.398438 -3.929688 0.617188 -4.15625 0.859375 -4.3125 C 0.941406 -4.375 1.035156 -4.382812 1.140625 -4.34375 C 1.242188 -4.601562 1.394531 -4.804688 1.59375 -4.953125 C 1.789062 -5.097656 1.992188 -5.148438 2.203125 -5.109375 C 2.335938 -5.085938 2.484375 -5.007812 2.640625 -4.875 C 2.796875 -4.738281 2.921875 -4.492188 3.015625 -4.140625 C 3.109375 -3.785156 3.132812 -3.269531 3.09375 -2.59375 C 3.082031 -2.476562 3.066406 -2.363281 3.046875 -2.25 C 3.367188 -2.1875 3.707031 -2.21875 4.0625 -2.34375 C 4.414062 -2.476562 4.757812 -2.675781 5.09375 -2.9375 C 5.425781 -3.207031 5.71875 -3.503906 5.96875 -3.828125 C 6.03125 -3.898438 6.109375 -3.941406 6.203125 -3.953125 C 6.296875 -3.960938 6.378906 -3.941406 6.453125 -3.890625 Z M 1.25 -0.984375 C 1.40625 -0.984375 1.578125 -1.050781 1.765625 -1.1875 C 1.953125 -1.332031 2.101562 -1.546875 2.21875 -1.828125 C 1.789062 -2.066406 1.484375 -2.335938 1.296875 -2.640625 C 1.117188 -2.953125 1.023438 -3.265625 1.015625 -3.578125 C 0.765625 -3.335938 0.597656 -3.035156 0.515625 -2.671875 C 0.441406 -2.304688 0.445312 -1.972656 0.53125 -1.671875 C 0.570312 -1.546875 0.644531 -1.398438 0.75 -1.234375 C 0.851562 -1.066406 1.019531 -0.984375 1.25 -0.984375 Z M 2.40625 -2.640625 C 2.425781 -3.109375 2.414062 -3.472656 2.375 -3.734375 C 2.332031 -3.992188 2.28125 -4.171875 2.21875 -4.265625 C 2.164062 -4.367188 2.128906 -4.425781 2.109375 -4.4375 C 2.085938 -4.4375 2.078125 -4.4375 2.078125 -4.4375 C 2.046875 -4.4375 1.992188 -4.398438 1.921875 -4.328125 C 1.847656 -4.253906 1.789062 -4.144531 1.75 -4 C 1.675781 -3.78125 1.679688 -3.535156 1.765625 -3.265625 C 1.847656 -3.003906 2.0625 -2.757812 2.40625 -2.53125 C 2.40625 -2.5625 2.40625 -2.597656 2.40625 -2.640625 Z M 2.40625 -2.640625 "/></g></g></g><g fill="#ffffff" fill-opacity="1"><g transform="translate(83.75916, 18.286306)"><g><path d="M 6.453125 -3.890625 C 6.535156 -3.828125 6.582031 -3.75 6.59375 -3.65625 C 6.601562 -3.5625 6.578125 -3.476562 6.515625 -3.40625 C 6.210938 -3.007812 5.851562 -2.65625 5.4375 -2.34375 C 5.03125 -2.039062 4.601562 -1.8125 4.15625 -1.65625 C 3.707031 -1.507812 3.28125 -1.484375 2.875 -1.578125 C 2.707031 -1.171875 2.46875 -0.851562 2.15625 -0.625 C 1.851562 -0.394531 1.550781 -0.28125 1.25 -0.28125 C 1.25 -0.28125 1.242188 -0.28125 1.234375 -0.28125 C 0.910156 -0.289062 0.625 -0.398438 0.375 -0.609375 C 0.132812 -0.816406 -0.03125 -1.109375 -0.125 -1.484375 C -0.226562 -1.898438 -0.242188 -2.289062 -0.171875 -2.65625 C -0.109375 -3.03125 0.015625 -3.359375 0.203125 -3.640625 C 0.398438 -3.929688 0.617188 -4.15625 0.859375 -4.3125 C 0.941406 -4.375 1.035156 -4.382812 1.140625 -4.34375 C 1.242188 -4.601562 1.394531 -4.804688 1.59375 -4.953125 C 1.789062 -5.097656 1.992188 -5.148438 2.203125 -5.109375 C 2.335938 -5.085938 2.484375 -5.007812 2.640625 -4.875 C 2.796875 -4.738281 2.921875 -4.492188 3.015625 -4.140625 C 3.109375 -3.785156 3.132812 -3.269531 3.09375 -2.59375 C 3.082031 -2.476562 3.066406 -2.363281 3.046875 -2.25 C 3.367188 -2.1875 3.707031 -2.21875 4.0625 -2.34375 C 4.414062 -2.476562 4.757812 -2.675781 5.09375 -2.9375 C 5.425781 -3.207031 5.71875 -3.503906 5.96875 -3.828125 C 6.03125 -3.898438 6.109375 -3.941406 6.203125 -3.953125 C 6.296875 -3.960938 6.378906 -3.941406 6.453125 -3.890625 Z M 1.25 -0.984375 C 1.40625 -0.984375 1.578125 -1.050781 1.765625 -1.1875 C 1.953125 -1.332031 2.101562 -1.546875 2.21875 -1.828125 C 1.789062 -2.066406 1.484375 -2.335938 1.296875 -2.640625 C 1.117188 -2.953125 1.023438 -3.265625 1.015625 -3.578125 C 0.765625 -3.335938 0.597656 -3.035156 0.515625 -2.671875 C 0.441406 -2.304688 0.445312 -1.972656 0.53125 -1.671875 C 0.570312 -1.546875 0.644531 -1.398438 0.75 -1.234375 C 0.851562 -1.066406 1.019531 -0.984375 1.25 -0.984375 Z M 2.40625 -2.640625 C 2.425781 -3.109375 2.414062 -3.472656 2.375 -3.734375 C 2.332031 -3.992188 2.28125 -4.171875 2.21875 -4.265625 C 2.164062 -4.367188 2.128906 -4.425781 2.109375 -4.4375 C 2.085938 -4.4375 2.078125 -4.4375 2.078125 -4.4375 C 2.046875 -4.4375 1.992188 -4.398438 1.921875 -4.328125 C 1.847656 -4.253906 1.789062 -4.144531 1.75 -4 C 1.675781 -3.78125 1.679688 -3.535156 1.765625 -3.265625 C 1.847656 -3.003906 2.0625 -2.757812 2.40625 -2.53125 C 2.40625 -2.5625 2.40625 -2.597656 2.40625 -2.640625 Z M 2.40625 -2.640625 "/></g></g></g><g fill="#ffffff" fill-opacity="1"><g transform="translate(89.459055, 18.286306)"><g><path d="M 7.671875 -4 C 7.742188 -3.957031 7.789062 -3.890625 7.8125 -3.796875 C 7.84375 -3.703125 7.832031 -3.617188 7.78125 -3.546875 C 7.488281 -3.054688 7.109375 -2.546875 6.640625 -2.015625 C 6.171875 -1.484375 5.664062 -0.976562 5.125 -0.5 C 4.59375 -0.03125 4.054688 0.347656 3.515625 0.640625 C 2.984375 0.941406 2.503906 1.09375 2.078125 1.09375 C 1.984375 1.09375 1.894531 1.082031 1.8125 1.0625 C 1.625 1.03125 1.421875 0.925781 1.203125 0.75 C 0.992188 0.582031 0.847656 0.28125 0.765625 -0.15625 C 0.742188 -0.28125 0.773438 -0.390625 0.859375 -0.484375 C 0.941406 -0.578125 1.070312 -0.703125 1.25 -0.859375 C 1.382812 -0.972656 1.539062 -1.113281 1.71875 -1.28125 C 1.894531 -1.445312 2.054688 -1.625 2.203125 -1.8125 C 2.441406 -2.132812 2.597656 -2.425781 2.671875 -2.6875 C 2.742188 -2.957031 2.769531 -3.148438 2.75 -3.265625 C 2.6875 -3.234375 2.566406 -3.140625 2.390625 -2.984375 C 2.210938 -2.835938 1.972656 -2.53125 1.671875 -2.0625 C 1.316406 -1.53125 1 -0.929688 0.71875 -0.265625 C 0.4375 0.390625 0.179688 1.0625 -0.046875 1.75 C -0.285156 2.4375 -0.5 3.09375 -0.6875 3.71875 L -0.78125 3.96875 C -0.832031 4.125 -0.941406 4.203125 -1.109375 4.203125 C -1.128906 4.203125 -1.144531 4.203125 -1.15625 4.203125 C -1.351562 4.171875 -1.445312 4.050781 -1.4375 3.84375 C -1.4375 3.75 -1.390625 3.476562 -1.296875 3.03125 C -1.210938 2.59375 -1.097656 2.023438 -0.953125 1.328125 C -0.804688 0.628906 -0.640625 -0.140625 -0.453125 -0.984375 C -0.265625 -1.835938 -0.0703125 -2.710938 0.125 -3.609375 C 0.332031 -4.503906 0.535156 -5.378906 0.734375 -6.234375 C 0.929688 -7.097656 1.113281 -7.894531 1.28125 -8.625 C 1.289062 -8.644531 1.296875 -8.671875 1.296875 -8.703125 C 1.515625 -9.597656 1.679688 -10.296875 1.796875 -10.796875 C 2.066406 -11.890625 2.367188 -12.882812 2.703125 -13.78125 C 3.035156 -14.675781 3.363281 -15.394531 3.6875 -15.9375 C 4.019531 -16.476562 4.316406 -16.773438 4.578125 -16.828125 C 4.765625 -16.867188 4.921875 -16.804688 5.046875 -16.640625 C 5.210938 -16.410156 5.195312 -15.921875 5 -15.171875 C 4.800781 -14.421875 4.441406 -13.46875 3.921875 -12.3125 C 3.398438 -11.164062 2.742188 -9.878906 1.953125 -8.453125 C 1.773438 -7.722656 1.585938 -6.921875 1.390625 -6.046875 C 1.191406 -5.171875 0.988281 -4.28125 0.78125 -3.375 C 0.582031 -2.476562 0.394531 -1.617188 0.21875 -0.796875 C 0.34375 -1.085938 0.476562 -1.367188 0.625 -1.640625 C 0.78125 -1.921875 0.9375 -2.1875 1.09375 -2.4375 C 1.769531 -3.476562 2.347656 -3.984375 2.828125 -3.953125 C 3.078125 -3.929688 3.25 -3.800781 3.34375 -3.5625 C 3.46875 -3.3125 3.46875 -2.976562 3.34375 -2.5625 C 3.226562 -2.15625 3.03125 -1.765625 2.75 -1.390625 C 2.582031 -1.171875 2.398438 -0.972656 2.203125 -0.796875 C 2.015625 -0.617188 1.84375 -0.46875 1.6875 -0.34375 C 1.65625 -0.300781 1.617188 -0.257812 1.578125 -0.21875 C 1.535156 -0.1875 1.503906 -0.160156 1.484375 -0.140625 C 1.523438 0.0546875 1.59375 0.191406 1.6875 0.265625 C 1.78125 0.335938 1.863281 0.378906 1.9375 0.390625 C 2.195312 0.441406 2.546875 0.363281 2.984375 0.15625 C 3.421875 -0.0507812 3.890625 -0.359375 4.390625 -0.765625 C 4.890625 -1.171875 5.390625 -1.644531 5.890625 -2.1875 C 6.390625 -2.726562 6.828125 -3.300781 7.203125 -3.90625 C 7.242188 -3.988281 7.3125 -4.035156 7.40625 -4.046875 C 7.5 -4.066406 7.585938 -4.050781 7.671875 -4 Z M 4.4375 -15.828125 C 4.226562 -15.535156 3.953125 -15.007812 3.609375 -14.25 C 3.273438 -13.5 2.945312 -12.476562 2.625 -11.1875 C 3.21875 -12.382812 3.648438 -13.367188 3.921875 -14.140625 C 4.203125 -14.910156 4.375 -15.472656 4.4375 -15.828125 Z M 4.4375 -15.828125 "/></g></g></g><g fill="#ffffff" fill-opacity="1"><g transform="translate(96.405802, 18.286306)"><g><path d="M 6.015625 -3.96875 C 6.097656 -3.925781 6.144531 -3.851562 6.15625 -3.75 C 6.175781 -3.65625 6.160156 -3.578125 6.109375 -3.515625 C 5.410156 -2.535156 4.769531 -1.726562 4.1875 -1.09375 C 3.601562 -0.457031 3.019531 0.0664062 2.4375 0.484375 C 2 0.785156 1.566406 0.9375 1.140625 0.9375 C 0.804688 0.9375 0.515625 0.847656 0.265625 0.671875 C 0.0976562 0.554688 -0.0625 0.347656 -0.21875 0.046875 C -0.382812 -0.253906 -0.472656 -0.691406 -0.484375 -1.265625 C -0.492188 -1.847656 -0.347656 -2.609375 -0.046875 -3.546875 C -0.046875 -3.546875 -0.046875 -3.550781 -0.046875 -3.5625 C 0.304688 -4.695312 0.722656 -5.566406 1.203125 -6.171875 C 1.679688 -6.773438 2.09375 -7.082031 2.4375 -7.09375 C 2.707031 -7.101562 2.882812 -6.984375 2.96875 -6.734375 C 3.101562 -6.390625 2.953125 -5.898438 2.515625 -5.265625 C 2.078125 -4.628906 1.425781 -3.953125 0.5625 -3.234375 C 0.300781 -2.410156 0.175781 -1.765625 0.1875 -1.296875 C 0.207031 -0.828125 0.273438 -0.488281 0.390625 -0.28125 C 0.503906 -0.0703125 0.597656 0.0625 0.671875 0.125 C 1.035156 0.382812 1.492188 0.3125 2.046875 -0.09375 C 2.597656 -0.46875 3.148438 -0.960938 3.703125 -1.578125 C 4.265625 -2.191406 4.878906 -2.96875 5.546875 -3.90625 C 5.597656 -3.96875 5.671875 -4.007812 5.765625 -4.03125 C 5.859375 -4.050781 5.941406 -4.03125 6.015625 -3.96875 Z M 2.3125 -6.34375 C 2.1875 -6.257812 2.007812 -6.082031 1.78125 -5.8125 C 1.550781 -5.550781 1.320312 -5.164062 1.09375 -4.65625 C 1.519531 -5.0625 1.820312 -5.410156 2 -5.703125 C 2.175781 -5.992188 2.28125 -6.207031 2.3125 -6.34375 Z M 2.3125 -6.34375 "/></g></g></g><g clip-path="url(#4ffe261b33)"><g fill="#ffffff" fill-opacity="1"><g transform="translate(101.589142, 18.286306)"><g><path d="M 7.8125 -4.046875 C 7.894531 -3.992188 7.953125 -3.921875 7.984375 -3.828125 C 8.023438 -3.742188 8.023438 -3.660156 7.984375 -3.578125 C 7.753906 -3.085938 7.472656 -2.539062 7.140625 -1.9375 C 6.816406 -1.332031 6.472656 -0.722656 6.109375 -0.109375 C 5.742188 0.492188 5.367188 1.046875 4.984375 1.546875 C 4.609375 2.054688 4.238281 2.46875 3.875 2.78125 C 3.519531 3.101562 3.203125 3.265625 2.921875 3.265625 C 2.835938 3.265625 2.757812 3.242188 2.6875 3.203125 C 2.4375 3.109375 2.269531 2.882812 2.1875 2.53125 C 2.113281 2.175781 2.125 1.664062 2.21875 1 C 2.382812 -0.195312 2.828125 -1.894531 3.546875 -4.09375 C 3.535156 -4.09375 3.523438 -4.085938 3.515625 -4.078125 C 3.515625 -4.078125 3.503906 -4.078125 3.484375 -4.078125 C 3.253906 -3.910156 2.972656 -3.738281 2.640625 -3.5625 C 2.304688 -3.382812 1.957031 -3.265625 1.59375 -3.203125 C 1.238281 -3.140625 0.90625 -3.21875 0.59375 -3.4375 C 0.132812 -3.757812 -0.0976562 -4.203125 -0.109375 -4.765625 C -0.117188 -5.335938 0.09375 -5.960938 0.53125 -6.640625 C 0.675781 -6.859375 0.863281 -7.097656 1.09375 -7.359375 C 1.320312 -7.617188 1.5625 -7.816406 1.8125 -7.953125 C 2.070312 -8.097656 2.304688 -8.109375 2.515625 -7.984375 C 2.617188 -7.921875 2.695312 -7.816406 2.75 -7.671875 C 2.800781 -7.535156 2.796875 -7.316406 2.734375 -7.015625 C 2.679688 -6.722656 2.539062 -6.328125 2.3125 -5.828125 C 2.09375 -5.328125 1.753906 -4.679688 1.296875 -3.890625 C 1.566406 -3.847656 1.867188 -3.921875 2.203125 -4.109375 C 2.546875 -4.304688 2.847656 -4.488281 3.109375 -4.65625 C 3.359375 -4.8125 3.566406 -4.925781 3.734375 -5 C 3.898438 -5.082031 4.054688 -5.070312 4.203125 -4.96875 C 4.335938 -4.863281 4.390625 -4.734375 4.359375 -4.578125 C 4.335938 -4.421875 4.316406 -4.300781 4.296875 -4.21875 C 3.898438 -2.988281 3.59375 -1.960938 3.375 -1.140625 C 3.164062 -0.316406 3.019531 0.335938 2.9375 0.828125 C 2.863281 1.328125 2.828125 1.703125 2.828125 1.953125 C 2.828125 2.203125 2.84375 2.363281 2.875 2.4375 C 2.914062 2.519531 2.9375 2.566406 2.9375 2.578125 C 3.082031 2.609375 3.375 2.378906 3.8125 1.890625 C 4.257812 1.410156 4.789062 0.6875 5.40625 -0.28125 C 6.03125 -1.25 6.679688 -2.441406 7.359375 -3.859375 C 7.398438 -3.953125 7.460938 -4.015625 7.546875 -4.046875 C 7.640625 -4.078125 7.726562 -4.078125 7.8125 -4.046875 Z M 0.640625 -5.25 C 0.566406 -5 0.546875 -4.796875 0.578125 -4.640625 C 0.609375 -4.484375 0.65625 -4.351562 0.71875 -4.25 C 1.09375 -4.914062 1.378906 -5.457031 1.578125 -5.875 C 1.773438 -6.289062 1.90625 -6.609375 1.96875 -6.828125 C 2.039062 -7.054688 2.085938 -7.222656 2.109375 -7.328125 C 1.972656 -7.253906 1.804688 -7.113281 1.609375 -6.90625 C 1.410156 -6.707031 1.21875 -6.460938 1.03125 -6.171875 C 0.851562 -5.890625 0.722656 -5.582031 0.640625 -5.25 Z M 0.640625 -5.25 "/></g></g></g></g><g clip-path="url(#45c1f24a9c)"><path stroke-linecap="butt" transform="matrix(0.0468175, 0, 0, 0.0468175, 51.486086, 11.059949)" fill="none" stroke-linejoin="miter" d="M 94.245691 95.671685 C 90.240782 93.418924 87.070229 91.499905 83.148756 89.580886 C 71.384335 83.9907 59.536479 79.568613 46.603959 77.232416 C 37.509478 75.563704 28.999046 75.480268 20.57205 78.734257 C 12.311925 81.988246 5.303334 89.163708 2.216216 97.423833 C -0.286852 104.098682 -0.537159 110.856966 1.465296 117.531814 C 3.718057 125.20789 8.473887 131.215254 15.732785 135.637341 C 18.402724 137.306053 21.239535 138.307281 24.326652 138.89133 C 24.410088 138.89133 24.493523 138.974766 24.493523 139.141637 C 24.493523 139.141637 24.493523 139.141637 24.493523 139.225072 C 16.149963 151.573542 18.319288 167.509743 29.082482 177.772323 C 32.253035 180.692569 35.840766 182.945331 40.012546 184.447172 C 46.937702 186.866804 54.94752 186.866804 61.705804 184.280301 C 65.794149 182.695024 69.215009 180.692569 71.884949 178.356372 C 76.557343 174.434899 80.645687 169.679069 84.316854 164.088883 C 87.654278 159.082747 90.741396 153.909739 93.077593 148.486425 C 94.913176 144.314644 96.498453 140.97722 97.833422 137.222618 C 99.835877 131.966175 101.421154 126.709731 102.756123 121.620159 C 103.256737 119.534269 103.507044 117.948992 103.924222 115.52936 C 104.007657 115.52936 104.007657 115.52936 104.007657 115.52936 L 104.091093 115.52936 C 104.174529 115.52936 104.174529 115.612795 104.174529 115.612795 C 103.924222 121.453288 103.757351 124.707277 103.757351 125.291326 C 102.25551 152.157592 94.412563 178.439808 80.812559 201.718343 C 80.729123 201.801778 80.812559 201.885214 80.895994 201.885214 C 80.895994 201.968649 80.895994 201.968649 80.97943 201.968649 L 93.745078 202.469263 C 93.911949 202.469263 94.07882 202.385827 94.245691 202.218956 C 94.495998 201.885214 94.746305 201.3846 95.080047 200.63368 C 98.751214 191.372327 101.754896 181.944104 104.007657 172.349009 C 106.927904 159.499925 108.846923 146.48397 109.764714 133.301144 C 110.181892 126.960038 110.348764 121.03611 110.181892 115.696231 C 110.181892 115.612795 110.265328 115.52936 110.265328 115.52936 L 110.432199 115.52936 C 110.515635 115.612795 110.59907 115.612795 110.59907 115.696231 C 113.352445 131.632432 118.442018 146.567406 125.867787 160.584588 C 128.287419 165.090111 131.12423 169.428762 134.628525 173.683978 C 137.131594 176.854531 140.135276 179.607907 143.556135 182.027539 C 155.904605 190.704842 172.508291 190.287664 183.855534 179.774778 C 193.534064 170.763732 196.204004 157.163728 191.114432 144.982129 C 190.780689 144.231209 190.363511 143.396853 189.862898 142.479061 C 189.862898 142.395626 189.862898 142.228754 189.946333 142.228754 C 189.946333 142.228754 190.029769 142.228754 190.029769 142.228754 C 191.114432 141.978447 191.781917 141.811576 192.199095 141.728141 C 197.622409 140.560042 202.461674 138.056974 206.550019 134.218936 C 211.222413 129.880284 214.476402 123.455743 215.561065 117.281508 C 217.062906 108.604204 214.559838 99.342852 208.969652 92.417697 C 199.040815 79.985791 183.605227 78.317079 168.753689 80.402969 C 160.910742 81.571068 153.484973 83.23978 146.643253 85.575977 C 139.718097 87.995609 134.211347 90.0815 130.039567 92.000519 C 127.953677 92.91831 123.865332 94.837329 117.774533 97.757575 C 117.774533 97.757575 117.774533 97.67414 117.774533 97.67414 C 125.200302 92.417697 132.292328 86.577204 138.967177 80.236098 C 148.228529 71.391923 155.904605 61.796829 161.578227 50.449586 C 162.996632 47.445904 164.081295 44.358787 164.915651 41.104798 C 167.919333 30.007862 165.165958 18.326877 157.239575 9.983316 C 154.736507 7.396812 152.150003 5.394358 149.313192 3.975952 C 139.884969 -0.779877 130.623616 -1.030184 121.362264 3.058161 C 116.022385 5.477793 112.184347 9.065525 108.846923 13.571047 C 108.763487 13.737919 108.596616 13.737919 108.429745 13.654483 C 108.429745 13.654483 108.429745 13.654483 108.429745 13.571047 C 105.426063 9.315831 101.67146 5.978407 97.249373 3.64221 C 85.818695 -2.365154 71.718077 -0.446135 62.039547 8.147733 C 56.616232 12.903563 53.195372 18.744055 51.693531 25.836082 C 50.024819 33.8459 51.52666 41.855718 54.94752 49.364923 C 57.450588 55.038544 60.621141 60.378423 64.292308 65.38456 C 67.29599 69.389469 71.050592 74.061863 74.972066 78.150208 C 78.392926 81.737939 81.813786 85.075363 85.234646 88.162481 C 88.321763 90.915856 91.659188 93.418924 94.329127 95.504814 C 94.329127 95.58825 94.329127 95.58825 94.329127 95.58825 C 94.329127 95.671685 94.245691 95.671685 94.245691 95.671685 " stroke="#9ccca3" stroke-width="2" stroke-opacity="1" stroke-miterlimit="4"/><path fill="#ffffff" d="M 55.902344 15.53125 C 55.777344 15.433594 55.621094 15.316406 55.476562 15.1875 C 55.316406 15.042969 55.15625 14.886719 54.996094 14.71875 C 54.8125 14.527344 54.636719 14.308594 54.496094 14.121094 C 54.324219 13.886719 54.175781 13.636719 54.058594 13.371094 C 53.898438 13.019531 53.828125 12.644531 53.90625 12.269531 C 53.976562 11.9375 54.136719 11.664062 54.390625 11.441406 C 54.84375 11.039062 55.503906 10.949219 56.039062 11.230469 C 56.246094 11.339844 56.421875 11.496094 56.5625 11.695312 C 56.566406 11.703125 56.574219 11.703125 56.582031 11.699219 C 56.582031 11.699219 56.582031 11.699219 56.582031 11.695312 C 56.738281 11.484375 56.917969 11.316406 57.167969 11.203125 C 57.601562 11.011719 58.035156 11.023438 58.476562 11.246094 C 58.609375 11.3125 58.730469 11.40625 58.847656 11.527344 C 59.21875 11.917969 59.347656 12.464844 59.207031 12.984375 C 59.167969 13.136719 59.117188 13.28125 59.050781 13.421875 C 58.785156 13.953125 58.425781 14.402344 57.992188 14.816406 C 57.679688 15.113281 57.347656 15.386719 57 15.632812 C 57 15.632812 57 15.636719 57 15.636719 C 57 15.636719 57 15.636719 57.003906 15.636719 C 57.285156 15.5 57.476562 15.410156 57.574219 15.367188 C 57.769531 15.277344 58.027344 15.179688 58.351562 15.066406 C 58.671875 14.957031 59.019531 14.878906 59.386719 14.824219 C 60.082031 14.726562 60.804688 14.800781 61.273438 15.386719 C 61.53125 15.710938 61.648438 16.144531 61.578125 16.550781 C 61.527344 16.839844 61.375 17.140625 61.15625 17.34375 C 60.964844 17.523438 60.738281 17.640625 60.484375 17.695312 C 60.464844 17.699219 60.433594 17.707031 60.382812 17.71875 C 60.378906 17.71875 60.375 17.722656 60.375 17.726562 C 60.375 17.726562 60.375 17.726562 60.375 17.730469 C 60.398438 17.773438 60.417969 17.8125 60.433594 17.847656 C 60.675781 18.417969 60.546875 19.054688 60.09375 19.476562 C 59.5625 19.96875 58.785156 19.988281 58.207031 19.582031 C 58.046875 19.46875 57.90625 19.339844 57.789062 19.191406 C 57.625 18.992188 57.492188 18.789062 57.378906 18.578125 C 57.03125 17.921875 56.792969 17.222656 56.664062 16.476562 C 56.664062 16.472656 56.660156 16.46875 56.65625 16.46875 L 56.648438 16.46875 C 56.648438 16.46875 56.644531 16.472656 56.644531 16.472656 C 56.652344 16.726562 56.644531 17.003906 56.625 17.300781 C 56.582031 17.917969 56.492188 18.527344 56.355469 19.125 C 56.25 19.578125 56.109375 20.019531 55.9375 20.453125 C 55.921875 20.488281 55.910156 20.511719 55.898438 20.527344 C 55.890625 20.535156 55.882812 20.539062 55.875 20.539062 L 55.277344 20.515625 C 55.269531 20.515625 55.269531 20.511719 55.269531 20.507812 C 55.269531 20.503906 55.269531 20.503906 55.269531 20.503906 C 55.90625 19.414062 56.273438 18.183594 56.34375 16.925781 C 56.347656 16.898438 56.351562 16.746094 56.363281 16.472656 C 56.363281 16.472656 56.363281 16.46875 56.359375 16.46875 L 56.355469 16.46875 C 56.332031 16.582031 56.320312 16.65625 56.296875 16.753906 C 56.234375 16.992188 56.160156 17.238281 56.066406 17.484375 C 56.003906 17.660156 55.929688 17.816406 55.84375 18.011719 C 55.734375 18.265625 55.589844 18.507812 55.433594 18.742188 C 55.261719 19.003906 55.070312 19.226562 54.851562 19.410156 C 54.726562 19.519531 54.566406 19.613281 54.375 19.6875 C 54.058594 19.808594 53.683594 19.808594 53.359375 19.691406 C 53.164062 19.625 52.996094 19.519531 52.847656 19.382812 C 52.34375 18.902344 52.246094 18.15625 52.632812 17.574219 C 52.636719 17.570312 52.632812 17.566406 52.628906 17.5625 C 52.628906 17.5625 52.625 17.5625 52.625 17.5625 C 52.480469 17.535156 52.347656 17.488281 52.222656 17.410156 C 51.882812 17.203125 51.660156 16.921875 51.554688 16.5625 C 51.460938 16.25 51.472656 15.933594 51.589844 15.621094 C 51.734375 15.234375 52.0625 14.898438 52.449219 14.746094 C 52.84375 14.59375 53.242188 14.597656 53.667969 14.675781 C 54.273438 14.785156 54.832031 14.992188 55.378906 15.253906 C 55.5625 15.34375 55.710938 15.433594 55.898438 15.539062 C 55.898438 15.539062 55.902344 15.539062 55.902344 15.535156 C 55.902344 15.535156 55.902344 15.53125 55.902344 15.53125 Z M 55.902344 15.53125 " fill-opacity="1" fill-rule="nonzero"/></g></g></g></svg>